<svg width="64" height="64" viewBox="0 0 64 64" fill="none" xmlns="http://www.w3.org/2000/svg">
<path d="M0 32C0 14.3269 14.3269 0 32 0C49.6731 0 64 14.3269 64 32C64 49.6731 49.6731 64 32 64C14.3269 64 0 49.6731 0 32Z" fill="#F3E8FF"/>
<path d="M37 35.44V42.3C37 42.4466 36.95 42.5666 36.85 42.66C36.75 42.7533 36.6333 42.8 36.5 42.8C36.4067 42.8 36.32 42.78 36.24 42.74L32 40.2L27.76 42.74C27.64 42.8066 27.5133 42.8233 27.38 42.79C27.2467 42.7566 27.1467 42.68 27.08 42.56C27.0267 42.48 27 42.3933 27 42.3V35.44C26.0667 34.6933 25.34 33.7866 24.82 32.72C24.2733 31.6133 24 30.44 24 29.2C24 27.7466 24.3667 26.4 25.1 25.16C25.8067 23.9466 26.76 22.9866 27.96 22.28C29.2 21.56 30.5467 21.2 32 21.2C33.4533 21.2 34.8 21.56 36.04 22.28C37.24 22.9866 38.1933 23.9466 38.9 25.16C39.6333 26.4 40 27.7466 40 29.2C40 30.44 39.7267 31.6133 39.18 32.72C38.66 33.7866 37.9333 34.6933 37 35.44ZM29 36.6V39.66L32 37.86L35 39.66V36.6C34.04 37 33.04 37.2 32 37.2C30.96 37.2 29.96 37.0066 29 36.62V36.6ZM32 35.2C33.08 35.2 34.0867 34.9266 35.02 34.38C35.9267 33.8466 36.6467 33.1266 37.18 32.22C37.7267 31.2866 38 30.2766 38 29.19C38 28.1033 37.7267 27.0933 37.18 26.16C36.6467 25.2533 35.9267 24.54 35.02 24.02C34.0867 23.4733 33.08 23.2 32 23.2C30.92 23.2 29.9133 23.4733 28.98 24.02C28.0733 24.54 27.3533 25.2533 26.82 26.16C26.2733 27.0933 26 28.1033 26 29.19C26 30.2766 26.2733 31.2866 26.82 32.22C27.3533 33.1266 28.0733 33.8466 28.98 34.38C29.9133 34.9266 30.92 35.2 32 35.2Z" fill="#9333EA"/>
</svg>