<svg width="64" height="64" viewBox="0 0 64 64" fill="none" xmlns="http://www.w3.org/2000/svg">
<path d="M0 32C0 14.3269 14.3269 0 32 0C49.6731 0 64 14.3269 64 32C64 49.6731 49.6731 64 32 64C14.3269 64 0 49.6731 0 32Z" fill="#DCFCE7"/>
<path d="M38 41C38 38.8783 37.1571 36.8434 35.6569 35.3431C34.1566 33.8429 32.1217 33 30 33M30 33C27.8783 33 25.8434 33.8429 24.3431 35.3431C22.8429 36.8434 22 38.8783 22 41M30 33C32.7614 33 35 30.7614 35 28C35 25.2386 32.7614 23 30 23C27.2386 23 25 25.2386 25 28C25 30.7614 27.2386 33 30 33ZM42 40C42 36.63 40 33.5 38 32C38.6574 31.5068 39.1831 30.8591 39.5306 30.1143C39.878 29.3695 40.0365 28.5505 39.992 27.7298C39.9475 26.9091 39.7014 26.1121 39.2755 25.4092C38.8495 24.7063 38.2569 24.1193 37.55 23.7" stroke="#16A34A" stroke-width="2" stroke-linecap="round" stroke-linejoin="round"/>
</svg>