<svg width="17" height="16" viewBox="0 0 17 16" fill="none" xmlns="http://www.w3.org/2000/svg">
<path d="M8.32852 14.667C7.42242 14.667 6.55629 14.4937 5.73014 14.147C4.93952 13.8092 4.23552 13.3314 3.61813 12.7137C3.00074 12.0959 2.52326 11.3914 2.18569 10.6003C1.83924 9.77366 1.66602 8.90699 1.66602 8.00033C1.66602 7.09366 1.83924 6.22699 2.18569 5.40033C2.52326 4.60921 3.00074 3.90477 3.61813 3.28699C4.23552 2.66922 4.93952 2.19144 5.73014 1.85366C6.55629 1.50699 7.42242 1.33366 8.32852 1.33366C9.23462 1.33366 10.1007 1.50699 10.9269 1.85366C11.7175 2.19144 12.4215 2.66922 13.0389 3.28699C13.6563 3.90477 14.1338 4.60921 14.4713 5.40033C14.8178 6.22699 14.991 7.09366 14.991 8.00033C14.991 8.90699 14.8178 9.77366 14.4713 10.6003C14.1338 11.3914 13.6563 12.0959 13.0389 12.7137C12.4215 13.3314 11.7175 13.8092 10.9269 14.147C10.1007 14.4937 9.23462 14.667 8.32852 14.667ZM8.32852 13.3337C9.2968 13.3337 10.194 13.0892 11.0202 12.6003C11.8197 12.1292 12.4548 11.4937 12.9256 10.6937C13.4142 9.86699 13.6585 8.96921 13.6585 8.00033C13.6585 7.03144 13.4142 6.13366 12.9256 5.30699C12.4548 4.50699 11.8197 3.87144 11.0202 3.40033C10.194 2.91144 9.2968 2.66699 8.32852 2.66699C7.36023 2.66699 6.46302 2.91144 5.63687 3.40033C4.83737 3.87144 4.20221 4.50699 3.73139 5.30699C3.24281 6.13366 2.99852 7.03144 2.99852 8.00033C2.99852 8.96921 3.24281 9.86699 3.73139 10.6937C4.20221 11.4937 4.83737 12.1292 5.63687 12.6003C6.46302 13.0892 7.36023 13.3337 8.32852 13.3337ZM7.66227 10.0003H8.99477V11.3337H7.66227V10.0003ZM7.66227 4.66699H8.99477V8.66699H7.66227V4.66699Z" fill="#DC2626"/>
</svg>
