<svg width="19" height="18" viewBox="0 0 19 18" fill="none" xmlns="http://www.w3.org/2000/svg">
<path d="M6.57031 12.375C6.75031 12.405 6.93531 12.435 7.12531 12.465C7.59531 12.555 8.07031 12.66 8.55031 12.78C9.23031 12.95 9.86531 13.14 10.4553 13.35C11.1953 13.61 11.8503 13.895 12.4203 14.205C13.0903 14.565 13.6403 14.955 14.0703 15.375H14.8203C15.0203 15.375 15.1928 15.3025 15.3378 15.1575C15.4828 15.0125 15.5553 14.835 15.5553 14.625V10.08C15.8853 9.99 16.1578 9.8125 16.3728 9.5475C16.5878 9.2825 16.6928 8.975 16.6878 8.625C16.6828 8.275 16.5753 7.9675 16.3653 7.7025C16.1553 7.4375 15.8903 7.26 15.5703 7.17V2.625C15.5703 2.415 15.4953 2.2375 15.3453 2.0925C15.1953 1.9475 15.0153 1.875 14.8053 1.875H14.0703C13.6503 2.295 13.1003 2.685 12.4203 3.045C11.8503 3.355 11.1953 3.64 10.4553 3.9C9.86531 4.11 9.23031 4.3 8.55031 4.47C8.07031 4.59 7.59531 4.695 7.12531 4.785L6.57031 4.875H3.57031C3.29031 4.875 3.03531 4.9425 2.80531 5.0775C2.57531 5.2125 2.39531 5.395 2.26531 5.625C2.13531 5.855 2.07031 6.105 2.07031 6.375V10.875C2.07031 11.145 2.13531 11.395 2.26531 11.625C2.39531 11.855 2.57531 12.0375 2.80531 12.1725C3.03531 12.3075 3.28531 12.375 3.55531 12.375H4.32031L5.07031 16.125H6.57031V12.375ZM8.07031 6.12C8.69031 5.99 9.29531 5.835 9.88531 5.655C11.6053 5.155 12.9953 4.54 14.0553 3.81V13.44C12.9953 12.71 11.6053 12.095 9.88531 11.595C9.29531 11.415 8.68531 11.26 8.05531 11.13V6.12H8.07031ZM3.57031 6.375H6.57031V10.875H3.57031V6.375Z" fill="#CA8A04"/>
</svg>
