<svg width="15" height="14" viewBox="0 0 15 14" fill="none" xmlns="http://www.w3.org/2000/svg">
<path d="M3.20715 0.980204H11.3709C11.5342 0.980204 11.6722 1.03659 11.7849 1.14937C11.8977 1.26215 11.954 1.4002 11.954 1.56354V12.7285C11.954 12.8063 11.9249 12.8744 11.8666 12.9327C11.8082 12.991 11.7402 13.0202 11.6625 13.0202C11.608 13.0202 11.5575 13.0046 11.5108 12.9735L7.28902 10.3252L3.0672 12.9735C3.005 13.0202 2.93308 13.0338 2.85144 13.0144C2.7698 12.9949 2.70955 12.9502 2.67067 12.8802C2.63957 12.8335 2.62402 12.783 2.62402 12.7285V1.56354C2.62402 1.4002 2.68039 1.26215 2.79313 1.14937C2.90587 1.03659 3.04387 0.980204 3.20715 0.980204ZM10.7878 2.14687H3.79027V11.1535L7.28902 8.94854L10.7878 11.1535V2.14687Z" fill="#374151"/>
</svg>
