<svg width="19" height="18" viewBox="0 0 19 18" fill="none" xmlns="http://www.w3.org/2000/svg">
<path d="M2.625 13.875V3.75C2.625 3.34 2.725 2.9625 2.925 2.6175C3.125 2.2725 3.3975 2 3.7425 1.8C4.0875 1.6 4.465 1.5 4.875 1.5H15.375C15.585 1.5 15.7625 1.5725 15.9075 1.7175C16.0525 1.8625 16.125 2.04 16.125 2.25V15.75C16.125 15.96 16.0525 16.1375 15.9075 16.2825C15.7625 16.4275 15.585 16.5 15.375 16.5H5.25C4.77 16.5 4.33 16.3825 3.93 16.1475C3.53 15.9125 3.2125 15.595 2.9775 15.195C2.7425 14.795 2.625 14.355 2.625 13.875ZM14.625 15V12.75H5.25C4.94 12.75 4.675 12.86 4.455 13.08C4.235 13.3 4.125 13.565 4.125 13.875C4.125 14.185 4.235 14.45 4.455 14.67C4.675 14.89 4.94 15 5.25 15H14.625ZM4.125 11.505C4.475 11.335 4.85 11.25 5.25 11.25H14.625V3H4.875C4.665 3 4.4875 3.0725 4.3425 3.2175C4.1975 3.3625 4.125 3.54 4.125 3.75V11.505Z" fill="#374151"/>
</svg>
