<svg
  width="13"
  height="12"
  viewBox="0 0 13 12"
  fill="none"
  xmlns="http://www.w3.org/2000/svg"
>
  <path
    d="M6.49533 0C2.89972 0 0 2.31659 0 5.12896C0 6.95447 1.20628 8.55295 3.01571 9.46564L2.40328 11.7499C2.39174 11.7841 2.38997 11.8209 2.39816 11.856C2.40636 11.8912 2.42419 11.9235 2.44969 11.9491C2.48685 11.9818 2.53468 11.9999 2.58423 12C2.62532 11.9968 2.6643 11.9805 2.69557 11.9537L5.33084 10.1792C5.71984 10.2328 6.11196 10.2606 6.50469 10.2626C10.0957 10.2626 13 7.94599 13 5.12896C13 2.31196 10.0863 0 6.49533 0Z"
    fill="#392020"
  />
</svg>
