<svg width="19" height="18" viewBox="0 0 19 18" fill="none" xmlns="http://www.w3.org/2000/svg">
<path d="M4.5 13.5H6V15H15V3H6V4.5H4.5V2.25C4.5 2.04 4.5725 1.8625 4.7175 1.7175C4.8625 1.5725 5.04 1.5 5.25 1.5H15.75C15.96 1.5 16.1375 1.5725 16.2825 1.7175C16.4275 1.8625 16.5 2.04 16.5 2.25V15.75C16.5 15.96 16.4275 16.1375 16.2825 16.2825C16.1375 16.4275 15.96 16.5 15.75 16.5H5.25C5.04 16.5 4.8625 16.4275 4.7175 16.2825C4.5725 16.1375 4.5 15.96 4.5 15.75V13.5ZM6 8.25H11.25V9.75H6V12L2.25 9L6 6V8.25Z" fill="#374151"/>
</svg>
