<svg width="15" height="14" viewBox="0 0 15 14" fill="none" xmlns="http://www.w3.org/2000/svg">
<g clip-path="url(#clip0_2196_387)">
<path d="M2.62402 13.125C2.62402 12.2772 2.83784 11.4917 3.26546 10.7683C3.67754 10.0683 4.23345 9.51222 4.9332 9.1C5.65627 8.67222 6.44155 8.45833 7.28902 8.45833C8.1365 8.45833 8.92177 8.67222 9.64485 9.1C10.3446 9.51222 10.9005 10.0683 11.3126 10.7683C11.7402 11.4917 11.954 12.2772 11.954 13.125H10.7878C10.7878 12.495 10.6284 11.9078 10.3096 11.3633C9.99861 10.8344 9.57876 10.4144 9.05006 10.1033C8.50581 9.78444 7.9188 9.625 7.28902 9.625C6.65925 9.625 6.07224 9.78444 5.52799 10.1033C4.99929 10.4144 4.57944 10.8344 4.26844 11.3633C3.94966 11.9078 3.79027 12.495 3.79027 13.125H2.62402ZM7.28902 7.875C6.65147 7.875 6.06446 7.71556 5.52799 7.39667C4.99929 7.08556 4.57944 6.66556 4.26844 6.13667C3.94966 5.6 3.79027 5.01278 3.79027 4.375C3.79027 3.73722 3.94966 3.15 4.26844 2.61333C4.57944 2.08444 4.99929 1.66444 5.52799 1.35333C6.06446 1.03444 6.65147 0.875 7.28902 0.875C7.92657 0.875 8.51359 1.03444 9.05006 1.35333C9.57876 1.66444 9.99861 2.08444 10.3096 2.61333C10.6284 3.15 10.7878 3.73722 10.7878 4.375C10.7878 5.01278 10.6284 5.6 10.3096 6.13667C9.99861 6.66556 9.57876 7.08556 9.05006 7.39667C8.51359 7.71556 7.92657 7.875 7.28902 7.875ZM7.28902 6.70833C7.70887 6.70833 8.09762 6.60333 8.45527 6.39333C8.81292 6.18333 9.09671 5.89944 9.30664 5.54167C9.51656 5.18389 9.62152 4.795 9.62152 4.375C9.62152 3.955 9.51656 3.56611 9.30664 3.20833C9.09671 2.85056 8.81292 2.56667 8.45527 2.35667C8.09762 2.14667 7.70887 2.04167 7.28902 2.04167C6.86917 2.04167 6.48042 2.14667 6.12277 2.35667C5.76512 2.56667 5.48134 2.85056 5.27141 3.20833C5.06149 3.56611 4.95652 3.955 4.95652 4.375C4.95652 4.795 5.06149 5.18389 5.27141 5.54167C5.48134 5.89944 5.76512 6.18333 6.12277 6.39333C6.48042 6.60333 6.86917 6.70833 7.28902 6.70833Z" fill="#ffffff"/>
</g>
<defs>
<clipPath id="clip0_2196_387">
<rect width="14.5781" height="14" fill="white"/>
</clipPath>
</defs>
</svg>
