<svg width="15" height="14" viewBox="0 0 15 14" fill="none" xmlns="http://www.w3.org/2000/svg">
<path d="M7.28902 3.79167C8.1365 3.79167 8.92177 4.00556 9.64485 4.43333C10.3446 4.84556 10.9005 5.40167 11.3126 6.10167C11.7402 6.825 11.954 7.61056 11.954 8.45833C11.954 9.30611 11.7402 10.0917 11.3126 10.815C10.9005 11.515 10.3446 12.0711 9.64485 12.4833C8.92177 12.9111 8.1365 13.125 7.28902 13.125C6.44155 13.125 5.65627 12.9111 4.9332 12.4833C4.23345 12.0711 3.67754 11.515 3.26546 10.815C2.83784 10.0917 2.62402 9.30611 2.62402 8.45833C2.62402 7.61056 2.83784 6.825 3.26546 6.10167C3.67754 5.40167 4.23345 4.84556 4.9332 4.43333C5.65627 4.00556 6.44155 3.79167 7.28902 3.79167ZM7.28902 4.95833C6.65925 4.95833 6.07224 5.11778 5.52799 5.43667C4.99929 5.74778 4.57944 6.16778 4.26844 6.69667C3.94966 7.24111 3.79027 7.83028 3.79027 8.46417C3.79027 9.09806 3.94966 9.68333 4.26844 10.22C4.57944 10.7489 4.99929 11.1689 5.52799 11.48C6.07224 11.7989 6.65925 11.9583 7.28902 11.9583C7.9188 11.9583 8.50581 11.7989 9.05006 11.48C9.57876 11.1689 9.99861 10.7489 10.3096 10.22C10.6284 9.68333 10.7878 9.09806 10.7878 8.46417C10.7878 7.83028 10.6284 7.24111 10.3096 6.69667C9.99861 6.16778 9.57876 5.74778 9.05006 5.43667C8.50581 5.11778 7.9188 4.95833 7.28902 4.95833ZM7.28902 5.83333L8.05875 7.39667L9.7848 7.64167L8.53691 8.86667L8.82847 10.5817L7.28902 9.77667L5.74957 10.5817L6.04114 8.86667L4.79325 7.64167L6.5193 7.39667L7.28902 5.83333ZM10.7878 0.875V2.625L9.99472 3.29C9.32607 2.94 8.61855 2.72611 7.87215 2.64833V0.875H10.7878ZM6.7059 0.875V2.64833C5.9595 2.72611 5.25197 2.94 4.58332 3.29L3.79027 2.625V0.875H6.7059Z" fill="#ffffff"/>
</svg>
