<svg width="21" height="28" viewBox="0 0 21 28" fill="none" xmlns="http://www.w3.org/2000/svg">
<path d="M4.59008 18.3668H16.2538V12.5668C16.2538 11.5112 15.9872 10.5279 15.454 9.6168C14.943 8.72791 14.2488 8.02235 13.3712 7.50013C12.4603 6.97791 11.4772 6.7168 10.422 6.7168C9.36666 6.7168 8.38357 6.97791 7.47269 7.50013C6.59513 8.02235 5.90086 8.72791 5.38988 9.6168C4.85668 10.5279 4.59008 11.5112 4.59008 12.5668V18.3668ZM10.422 5.03346C11.7772 5.03346 13.038 5.37791 14.2043 6.0668C15.3374 6.73347 16.2372 7.63346 16.9037 8.7668C17.5813 9.93346 17.9201 11.2001 17.9201 12.5668V20.0335H2.92383V12.5668C2.92383 11.2001 3.26263 9.93346 3.94024 8.7668C4.60674 7.63346 5.50652 6.73347 6.63957 6.0668C7.80594 5.38902 9.06674 5.05013 10.422 5.05013V5.03346ZM8.33914 20.8668H12.5048C12.5048 21.2446 12.4103 21.5946 12.2215 21.9168C12.0327 22.239 11.7799 22.4946 11.4634 22.6835C11.1468 22.8724 10.7996 22.9668 10.422 22.9668C10.0443 22.9668 9.69713 22.8724 9.38055 22.6835C9.06396 22.4946 8.81124 22.239 8.6224 21.9168C8.43356 21.5946 8.33914 21.2501 8.33914 20.8835V20.8668Z" fill="#4B5563"/>
</svg>
