<svg width="17" height="16" viewBox="0 0 17 16" fill="none" xmlns="http://www.w3.org/2000/svg">
<path d="M2.99805 15C2.99805 14.0311 3.24234 13.1333 3.73092 12.3067C4.20174 11.5067 4.8369 10.8711 5.6364 10.4C6.46255 9.91111 7.35976 9.66667 8.32805 9.66667C9.29633 9.66667 10.1935 9.91111 11.0197 10.4C11.8192 10.8711 12.4544 11.5067 12.9252 12.3067C13.4138 13.1333 13.658 14.0311 13.658 15H12.3255C12.3255 14.28 12.1434 13.6089 11.7792 12.9867C11.4239 12.3822 10.9442 11.9022 10.3401 11.5467C9.71829 11.1822 9.0476 11 8.32805 11C7.6085 11 6.93781 11.1822 6.31597 11.5467C5.71191 11.9022 5.23221 12.3822 4.87687 12.9867C4.51266 13.6089 4.33055 14.28 4.33055 15H2.99805ZM8.32805 9C7.59961 9 6.92892 8.81778 6.31597 8.45333C5.71191 8.09778 5.23221 7.61778 4.87687 7.01333C4.51266 6.4 4.33055 5.72889 4.33055 5C4.33055 4.27111 4.51266 3.6 4.87687 2.98667C5.23221 2.38222 5.71191 1.90222 6.31597 1.54667C6.92892 1.18222 7.59961 1 8.32805 1C9.05648 1 9.72717 1.18222 10.3401 1.54667C10.9442 1.90222 11.4239 2.38222 11.7792 2.98667C12.1434 3.6 12.3255 4.27111 12.3255 5C12.3255 5.72889 12.1434 6.4 11.7792 7.01333C11.4239 7.61778 10.9442 8.09778 10.3401 8.45333C9.72717 8.81778 9.05648 9 8.32805 9ZM8.32805 7.66667C8.80775 7.66667 9.25191 7.54667 9.66055 7.30667C10.0692 7.06667 10.3934 6.74222 10.6333 6.33333C10.8731 5.92444 10.993 5.48 10.993 5C10.993 4.52 10.8731 4.07555 10.6333 3.66667C10.3934 3.25778 10.0692 2.93333 9.66055 2.69333C9.25191 2.45333 8.80775 2.33333 8.32805 2.33333C7.84835 2.33333 7.40418 2.45333 6.99555 2.69333C6.58691 2.93333 6.26267 3.25778 6.02282 3.66667C5.78297 4.07555 5.66305 4.52 5.66305 5C5.66305 5.48 5.78297 5.92444 6.02282 6.33333C6.26267 6.74222 6.58691 7.06667 6.99555 7.30667C7.40418 7.54667 7.84835 7.66667 8.32805 7.66667Z" fill="#CA8A04"/>
</svg>
