<svg width="19" height="18" viewBox="0 0 19 18" fill="none" xmlns="http://www.w3.org/2000/svg">
<path d="M9.375 8.25C10.055 8.25 10.6825 8.4175 11.2575 8.7525C11.8325 9.0875 12.2875 9.5425 12.6225 10.1175C12.9575 10.6925 13.125 11.32 13.125 12V16.5H11.625V12C11.625 11.61 11.53 11.2475 11.34 10.9125C11.15 10.5775 10.895 10.3075 10.575 10.1025C10.255 9.8975 9.9 9.78 9.51 9.75H9.375C8.985 9.75 8.6225 9.845 8.2875 10.035C7.9525 10.225 7.6825 10.48 7.4775 10.8C7.2725 11.12 7.155 11.475 7.125 11.865V16.5H5.625V12C5.625 11.32 5.7925 10.6925 6.1275 10.1175C6.4625 9.5425 6.9175 9.0875 7.4925 8.7525C8.0675 8.4175 8.695 8.25 9.375 8.25ZM4.5 10.5C4.71 10.5 4.915 10.525 5.115 10.575C4.985 10.955 4.905 11.345 4.875 11.745V12.06C4.785 12.03 4.695 12.01 4.605 12H4.5C4.21 12 3.9575 12.0975 3.7425 12.2925C3.5275 12.4875 3.405 12.73 3.375 13.02V13.125V16.5H1.875V13.125C1.875 12.645 1.9925 12.205 2.2275 11.805C2.4625 11.405 2.78 11.0875 3.18 10.8525C3.58 10.6175 4.02 10.5 4.5 10.5ZM14.25 10.5C14.73 10.5 15.17 10.6175 15.57 10.8525C15.97 11.0875 16.2875 11.405 16.5225 11.805C16.7575 12.205 16.875 12.645 16.875 13.125V16.5H15.375V13.125C15.375 12.835 15.2775 12.5825 15.0825 12.3675C14.8875 12.1525 14.645 12.03 14.355 12H14.25C14.12 12 13.995 12.02 13.875 12.06V12C13.875 11.51 13.8 11.035 13.65 10.575C13.84 10.525 14.04 10.5 14.25 10.5ZM4.5 6C4.84 6 5.1525 6.085 5.4375 6.255C5.7225 6.425 5.95 6.6525 6.12 6.9375C6.29 7.2225 6.375 7.535 6.375 7.875C6.375 8.215 6.29 8.5275 6.12 8.8125C5.95 9.0975 5.7225 9.325 5.4375 9.495C5.1525 9.665 4.84 9.75 4.5 9.75C4.16 9.75 3.8475 9.665 3.5625 9.495C3.2775 9.325 3.05 9.0975 2.88 8.8125C2.71 8.5275 2.625 8.215 2.625 7.875C2.625 7.535 2.71 7.2225 2.88 6.9375C3.05 6.6525 3.2775 6.425 3.5625 6.255C3.8475 6.085 4.16 6 4.5 6ZM14.25 6C14.59 6 14.9025 6.085 15.1875 6.255C15.4725 6.425 15.7 6.6525 15.87 6.9375C16.04 7.2225 16.125 7.535 16.125 7.875C16.125 8.215 16.04 8.5275 15.87 8.8125C15.7 9.0975 15.4725 9.325 15.1875 9.495C14.9025 9.665 14.59 9.75 14.25 9.75C13.91 9.75 13.5975 9.665 13.3125 9.495C13.0275 9.325 12.8 9.0975 12.63 8.8125C12.46 8.5275 12.375 8.215 12.375 7.875C12.375 7.535 12.46 7.2225 12.63 6.9375C12.8 6.6525 13.0275 6.425 13.3125 6.255C13.5975 6.085 13.91 6 14.25 6ZM4.5 7.5C4.4 7.5 4.3125 7.5375 4.2375 7.6125C4.1625 7.6875 4.125 7.775 4.125 7.875C4.125 7.975 4.1625 8.0625 4.2375 8.1375C4.3125 8.2125 4.4 8.25 4.5 8.25C4.6 8.25 4.6875 8.2125 4.7625 8.1375C4.8375 8.0625 4.875 7.975 4.875 7.875C4.875 7.775 4.8375 7.6875 4.7625 7.6125C4.6875 7.5375 4.6 7.5 4.5 7.5ZM14.25 7.5C14.15 7.5 14.0625 7.5375 13.9875 7.6125C13.9125 7.6875 13.875 7.775 13.875 7.875C13.875 7.975 13.9125 8.0625 13.9875 8.1375C14.0625 8.2125 14.15 8.25 14.25 8.25C14.35 8.25 14.4375 8.2125 14.5125 8.1375C14.5875 8.0625 14.625 7.975 14.625 7.875C14.625 7.775 14.5875 7.6875 14.5125 7.6125C14.4375 7.5375 14.35 7.5 14.25 7.5ZM9.375 1.5C9.915 1.5 10.415 1.635 10.875 1.905C11.335 2.175 11.7 2.54 11.97 3C12.24 3.46 12.375 3.96 12.375 4.5C12.375 5.04 12.24 5.54 11.97 6C11.7 6.46 11.335 6.825 10.875 7.095C10.415 7.365 9.915 7.5 9.375 7.5C8.835 7.5 8.335 7.365 7.875 7.095C7.415 6.825 7.05 6.46 6.78 6C6.51 5.54 6.375 5.04 6.375 4.5C6.375 3.96 6.51 3.46 6.78 3C7.05 2.54 7.415 2.175 7.875 1.905C8.335 1.635 8.835 1.5 9.375 1.5ZM9.375 3C9.105 3 8.855 3.0675 8.625 3.2025C8.395 3.3375 8.2125 3.52 8.0775 3.75C7.9425 3.98 7.875 4.23 7.875 4.5C7.875 4.77 7.9425 5.02 8.0775 5.25C8.2125 5.48 8.395 5.6625 8.625 5.7975C8.855 5.9325 9.105 6 9.375 6C9.645 6 9.895 5.9325 10.125 5.7975C10.355 5.6625 10.5375 5.48 10.6725 5.25C10.8075 5.02 10.875 4.77 10.875 4.5C10.875 4.23 10.8075 3.98 10.6725 3.75C10.5375 3.52 10.355 3.3375 10.125 3.2025C9.895 3.0675 9.645 3 9.375 3Z" fill="#374151"/>
</svg>
