<svg width="16" height="16" viewBox="0 0 16 16" fill="none" xmlns="http://www.w3.org/2000/svg">
<path d="M12.0821 13.8335H3.91832C3.59955 13.8335 3.30604 13.7557 3.0378 13.6002C2.76956 13.4446 2.5577 13.2327 2.4022 12.9643C2.2467 12.696 2.16895 12.4024 2.16895 12.0835V2.75016C2.16895 2.58683 2.22531 2.44877 2.33805 2.336C2.45079 2.22322 2.5888 2.16683 2.75207 2.16683H10.9158C11.0791 2.16683 11.2171 2.22322 11.3298 2.336C11.4426 2.44877 11.4989 2.58683 11.4989 2.75016V9.75016H13.8314V12.0835C13.8314 12.4024 13.7537 12.696 13.5982 12.9643C13.4427 13.2327 13.2308 13.4446 12.9626 13.6002C12.6944 13.7557 12.4008 13.8335 12.0821 13.8335ZM11.4989 10.9168V12.0835C11.4989 12.2468 11.5553 12.3849 11.6681 12.4977C11.7808 12.6104 11.9188 12.6668 12.0821 12.6668C12.2453 12.6668 12.3834 12.6104 12.4961 12.4977C12.6088 12.3849 12.6652 12.2468 12.6652 12.0835V10.9168H11.4989ZM10.3327 12.6668V3.3335H3.3352V12.0835C3.3352 12.2468 3.39156 12.3849 3.5043 12.4977C3.61704 12.6104 3.75505 12.6668 3.91832 12.6668H10.3327ZM4.50145 5.0835H9.16645V6.25016H4.50145V5.0835ZM4.50145 7.41683H9.16645V8.5835H4.50145V7.41683ZM4.50145 9.75016H7.41707V10.9168H4.50145V9.75016Z" fill="#854D0E"/>
</svg>
