<svg
  width="32"
  height="32"
  viewBox="0 0 32 32"
  fill="none"
  xmlns="http://www.w3.org/2000/svg"
>
  <path
    d="M0 8C0 3.58172 3.58172 0 8 0H24C28.4183 0 32 3.58172 32 8V24C32 28.4183 28.4183 32 24 32H8C3.58172 32 0 28.4183 0 24V8Z"
    fill="#EAB308"
  />
  <path
    d="M18.1719 13.9219C18.0781 13.0312 17.3594 12.5 16.2188 12.5C15.0312 12.5 14.375 13.0469 14.3594 13.7969C14.3438 14.6094 15.2031 14.9844 16.1719 15.2031L17.1875 15.4531C19.125 15.8906 20.5781 16.875 20.5781 18.7656C20.5781 20.8438 18.9531 22.1562 16.2031 22.1562C13.4688 22.1562 11.7188 20.8906 11.6562 18.4688H13.9375C14.0156 19.6094 14.9219 20.1875 16.1719 20.1875C17.4062 20.1875 18.2031 19.6094 18.2031 18.7656C18.2031 18 17.5 17.6406 16.2656 17.3281L15.0312 17.0312C13.125 16.5625 11.9531 15.6094 11.9531 13.9531C11.9531 11.8906 13.7656 10.5312 16.2344 10.5312C18.7344 10.5312 20.3906 11.9219 20.4219 13.9219H18.1719Z"
    fill="white"
  />
</svg>
