<svg width="32" height="30" viewBox="0 0 32 30" fill="none" xmlns="http://www.w3.org/2000/svg">
<path d="M22.9748 20.575L28.3248 25.925L26.5498 27.7L21.1998 22.35C20.2165 23.1333 19.1415 23.7333 17.9748 24.15C16.7415 24.5833 15.4748 24.8 14.1748 24.8C12.1415 24.8 10.2498 24.2916 8.4998 23.275C6.7998 22.275 5.45814 20.925 4.4748 19.225C3.44147 17.475 2.9248 15.5833 2.9248 13.55C2.9248 11.5166 3.44147 9.62495 4.4748 7.87495C5.45814 6.17495 6.7998 4.83328 8.4998 3.84995C10.2498 2.81662 12.1415 2.29995 14.1748 2.29995C16.2081 2.29995 18.0998 2.81662 19.8498 3.84995C21.5498 4.83328 22.8998 6.17495 23.8998 7.87495C24.9165 9.62495 25.4248 11.5166 25.4248 13.55C25.4248 14.85 25.2081 16.1166 24.7748 17.35C24.3581 18.5166 23.7581 19.5916 22.9748 20.575ZM20.4498 19.65C21.2331 18.85 21.8415 17.9333 22.2748 16.9C22.7081 15.8333 22.9248 14.7166 22.9248 13.55C22.9248 11.9666 22.5248 10.4916 21.7248 9.12495C20.9581 7.80828 19.9165 6.76662 18.5998 5.99995C17.2331 5.19995 15.7581 4.79995 14.1748 4.79995C12.5915 4.79995 11.1165 5.19995 9.7498 5.99995C8.43314 6.76662 7.39147 7.80828 6.6248 9.12495C5.8248 10.4916 5.4248 11.9666 5.4248 13.55C5.4248 15.1333 5.8248 16.6083 6.6248 17.975C7.39147 19.2916 8.43314 20.3333 9.7498 21.1C11.1165 21.9 12.5915 22.3 14.1748 22.3C15.3415 22.3 16.4581 22.0833 17.5248 21.65C18.5581 21.2166 19.4748 20.6083 20.2748 19.825L20.4498 19.65Z" fill="#9CA3AF"/>
</svg>
